<svg width="74" height="71" viewBox="0 0 74 71" fill="none" xmlns="http://www.w3.org/2000/svg">
<rect width="71" height="71" rx="5" fill="black"/>
<path d="M16.572 20L16.554 10.82L12 18.47H11.172L6.618 10.874V20H4.89V7.4H6.366L11.622 16.256L16.806 7.4H18.282L18.3 20H16.572ZM26.9234 10.37C28.1354 10.37 29.0954 10.724 29.8034 11.432C30.5234 12.128 30.8834 13.154 30.8834 14.51V20H29.1554V14.708C29.1554 13.784 28.9334 13.088 28.4894 12.62C28.0454 12.152 27.4094 11.918 26.5814 11.918C25.6454 11.918 24.9074 12.194 24.3674 12.746C23.8274 13.286 23.5574 14.066 23.5574 15.086V20H21.8294V10.46H23.4854V11.9C23.8334 11.408 24.3014 11.03 24.8894 10.766C25.4894 10.502 26.1674 10.37 26.9234 10.37ZM42.7561 15.284C42.7561 15.416 42.7441 15.59 42.7201 15.806H34.9801C35.0881 16.646 35.4541 17.324 36.0781 17.84C36.7141 18.344 37.5001 18.596 38.4361 18.596C39.5761 18.596 40.4941 18.212 41.1901 17.444L42.1441 18.56C41.7121 19.064 41.1721 19.448 40.5241 19.712C39.8881 19.976 39.1741 20.108 38.3821 20.108C37.3741 20.108 36.4801 19.904 35.7001 19.496C34.9201 19.076 34.3141 18.494 33.8821 17.75C33.4621 17.006 33.2521 16.166 33.2521 15.23C33.2521 14.306 33.4561 13.472 33.8641 12.728C34.2841 11.984 34.8541 11.408 35.5741 11C36.3061 10.58 37.1281 10.37 38.0401 10.37C38.9521 10.37 39.7621 10.58 40.4701 11C41.1901 11.408 41.7481 11.984 42.1441 12.728C42.5521 13.472 42.7561 14.324 42.7561 15.284ZM38.0401 11.828C37.2121 11.828 36.5161 12.08 35.9521 12.584C35.4001 13.088 35.0761 13.748 34.9801 14.564H41.1001C41.0041 13.76 40.6741 13.106 40.1101 12.602C39.5581 12.086 38.8681 11.828 38.0401 11.828ZM16.572 30.37C17.772 30.37 18.72 30.718 19.416 31.414C20.124 32.11 20.478 33.142 20.478 34.51V40H18.75V34.708C18.75 33.784 18.534 33.088 18.102 32.62C17.682 32.152 17.076 31.918 16.284 31.918C15.408 31.918 14.712 32.194 14.196 32.746C13.68 33.286 13.422 34.066 13.422 35.086V40H11.694V34.708C11.694 33.784 11.478 33.088 11.046 32.62C10.626 32.152 10.02 31.918 9.228 31.918C8.352 31.918 7.656 32.194 7.14 32.746C6.624 33.286 6.366 34.066 6.366 35.086V40H4.638V30.46H6.294V31.882C6.642 31.39 7.098 31.018 7.662 30.766C8.226 30.502 8.868 30.37 9.588 30.37C10.332 30.37 10.992 30.52 11.568 30.82C12.144 31.12 12.588 31.558 12.9 32.134C13.26 31.582 13.758 31.15 14.394 30.838C15.042 30.526 15.768 30.37 16.572 30.37ZM27.7963 40.108C26.8483 40.108 25.9963 39.898 25.2403 39.478C24.4843 39.058 23.8903 38.482 23.4583 37.75C23.0383 37.006 22.8283 36.166 22.8283 35.23C22.8283 34.294 23.0383 33.46 23.4583 32.728C23.8903 31.984 24.4843 31.408 25.2403 31C25.9963 30.58 26.8483 30.37 27.7963 30.37C28.7443 30.37 29.5903 30.58 30.3343 31C31.0903 31.408 31.6783 31.984 32.0983 32.728C32.5303 33.46 32.7463 34.294 32.7463 35.23C32.7463 36.166 32.5303 37.006 32.0983 37.75C31.6783 38.482 31.0903 39.058 30.3343 39.478C29.5903 39.898 28.7443 40.108 27.7963 40.108ZM27.7963 38.596C28.4083 38.596 28.9543 38.458 29.4343 38.182C29.9263 37.894 30.3103 37.498 30.5863 36.994C30.8623 36.478 31.0003 35.89 31.0003 35.23C31.0003 34.57 30.8623 33.988 30.5863 33.484C30.3103 32.968 29.9263 32.572 29.4343 32.296C28.9543 32.02 28.4083 31.882 27.7963 31.882C27.1843 31.882 26.6323 32.02 26.1403 32.296C25.6603 32.572 25.2763 32.968 24.9883 33.484C24.7123 33.988 24.5743 34.57 24.5743 35.23C24.5743 35.89 24.7123 36.478 24.9883 36.994C25.2763 37.498 25.6603 37.894 26.1403 38.182C26.6323 38.458 27.1843 38.596 27.7963 38.596ZM7.374 59.108C6.594 59.108 5.844 59.006 5.124 58.802C4.404 58.586 3.84 58.316 3.432 57.992L4.152 56.624C4.572 56.924 5.082 57.164 5.682 57.344C6.282 57.524 6.888 57.614 7.5 57.614C9.012 57.614 9.768 57.182 9.768 56.318C9.768 56.03 9.666 55.802 9.462 55.634C9.258 55.466 9 55.346 8.688 55.274C8.388 55.19 7.956 55.1 7.392 55.004C6.624 54.884 5.994 54.746 5.502 54.59C5.022 54.434 4.608 54.17 4.26 53.798C3.912 53.426 3.738 52.904 3.738 52.232C3.738 51.368 4.098 50.678 4.818 50.162C5.538 49.634 6.504 49.37 7.716 49.37C8.352 49.37 8.988 49.448 9.624 49.604C10.26 49.76 10.782 49.97 11.19 50.234L10.452 51.602C9.672 51.098 8.754 50.846 7.698 50.846C6.966 50.846 6.408 50.966 6.024 51.206C5.64 51.446 5.448 51.764 5.448 52.16C5.448 52.472 5.556 52.718 5.772 52.898C5.988 53.078 6.252 53.21 6.564 53.294C6.888 53.378 7.338 53.474 7.914 53.582C8.682 53.714 9.3 53.858 9.768 54.014C10.248 54.158 10.656 54.41 10.992 54.77C11.328 55.13 11.496 55.634 11.496 56.282C11.496 57.146 11.124 57.836 10.38 58.352C9.648 58.856 8.646 59.108 7.374 59.108ZM21.9218 49.46L17.2958 59.954C16.8878 60.926 16.4078 61.61 15.8558 62.006C15.3158 62.402 14.6618 62.6 13.8938 62.6C13.4258 62.6 12.9698 62.522 12.5258 62.366C12.0938 62.222 11.7338 62.006 11.4458 61.718L12.1838 60.422C12.6758 60.89 13.2458 61.124 13.8938 61.124C14.3138 61.124 14.6618 61.01 14.9378 60.782C15.2258 60.566 15.4838 60.188 15.7118 59.648L16.0178 58.982L11.8058 49.46H13.6058L16.9358 57.092L20.2298 49.46H21.9218ZM28.6285 49.37C29.8405 49.37 30.8005 49.724 31.5085 50.432C32.2285 51.128 32.5885 52.154 32.5885 53.51V59H30.8605V53.708C30.8605 52.784 30.6385 52.088 30.1945 51.62C29.7505 51.152 29.1145 50.918 28.2865 50.918C27.3505 50.918 26.6125 51.194 26.0725 51.746C25.5325 52.286 25.2625 53.066 25.2625 54.086V59H23.5345V49.46H25.1905V50.9C25.5385 50.408 26.0065 50.03 26.5945 49.766C27.1945 49.502 27.8725 49.37 28.6285 49.37ZM44.4612 54.284C44.4612 54.416 44.4492 54.59 44.4252 54.806H36.6852C36.7932 55.646 37.1592 56.324 37.7832 56.84C38.4192 57.344 39.2052 57.596 40.1412 57.596C41.2812 57.596 42.1992 57.212 42.8952 56.444L43.8492 57.56C43.4172 58.064 42.8772 58.448 42.2292 58.712C41.5932 58.976 40.8792 59.108 40.0872 59.108C39.0792 59.108 38.1852 58.904 37.4052 58.496C36.6252 58.076 36.0192 57.494 35.5872 56.75C35.1672 56.006 34.9572 55.166 34.9572 54.23C34.9572 53.306 35.1612 52.472 35.5692 51.728C35.9892 50.984 36.5592 50.408 37.2792 50C38.0112 49.58 38.8332 49.37 39.7452 49.37C40.6572 49.37 41.4672 49.58 42.1752 50C42.8952 50.408 43.4532 50.984 43.8492 51.728C44.2572 52.472 44.4612 53.324 44.4612 54.284ZM39.7452 50.828C38.9172 50.828 38.2212 51.08 37.6572 51.584C37.1052 52.088 36.7812 52.748 36.6852 53.564H42.8052C42.7092 52.76 42.3792 52.106 41.8152 51.602C41.2632 51.086 40.5732 50.828 39.7452 50.828Z" fill="white"/>
</svg>
