<svg width="42" height="56" viewBox="0 0 42 56" fill="none" xmlns="http://www.w3.org/2000/svg">
<path d="M13.572 13L13.554 3.82L9 11.47H8.172L3.618 3.874V13H1.89V0.399999H3.366L8.622 9.256L13.806 0.399999H15.282L15.3 13H13.572ZM23.9234 3.37C25.1354 3.37 26.0954 3.724 26.8034 4.432C27.5234 5.128 27.8834 6.154 27.8834 7.51V13H26.1554V7.708C26.1554 6.784 25.9334 6.088 25.4894 5.62C25.0454 5.152 24.4094 4.918 23.5814 4.918C22.6454 4.918 21.9074 5.194 21.3674 5.746C20.8274 6.286 20.5574 7.066 20.5574 8.086V13H18.8294V3.46H20.4854V4.9C20.8334 4.408 21.3014 4.03 21.8894 3.766C22.4894 3.502 23.1674 3.37 23.9234 3.37ZM39.7561 8.284C39.7561 8.416 39.7441 8.59 39.7201 8.806H31.9801C32.0881 9.646 32.4541 10.324 33.0781 10.84C33.7141 11.344 34.5001 11.596 35.4361 11.596C36.5761 11.596 37.4941 11.212 38.1901 10.444L39.1441 11.56C38.7121 12.064 38.1721 12.448 37.5241 12.712C36.8881 12.976 36.1741 13.108 35.3821 13.108C34.3741 13.108 33.4801 12.904 32.7001 12.496C31.9201 12.076 31.3141 11.494 30.8821 10.75C30.4621 10.006 30.2521 9.166 30.2521 8.23C30.2521 7.306 30.4561 6.472 30.8641 5.728C31.2841 4.984 31.8541 4.408 32.5741 4C33.3061 3.58 34.1281 3.37 35.0401 3.37C35.9521 3.37 36.7621 3.58 37.4701 4C38.1901 4.408 38.7481 4.984 39.1441 5.728C39.5521 6.472 39.7561 7.324 39.7561 8.284ZM35.0401 4.828C34.2121 4.828 33.5161 5.08 32.9521 5.584C32.4001 6.088 32.0761 6.748 31.9801 7.564H38.1001C38.0041 6.76 37.6741 6.106 37.1101 5.602C36.5581 5.086 35.8681 4.828 35.0401 4.828ZM13.572 23.37C14.772 23.37 15.72 23.718 16.416 24.414C17.124 25.11 17.478 26.142 17.478 27.51V33H15.75V27.708C15.75 26.784 15.534 26.088 15.102 25.62C14.682 25.152 14.076 24.918 13.284 24.918C12.408 24.918 11.712 25.194 11.196 25.746C10.68 26.286 10.422 27.066 10.422 28.086V33H8.694V27.708C8.694 26.784 8.478 26.088 8.046 25.62C7.626 25.152 7.02 24.918 6.228 24.918C5.352 24.918 4.656 25.194 4.14 25.746C3.624 26.286 3.366 27.066 3.366 28.086V33H1.638V23.46H3.294V24.882C3.642 24.39 4.098 24.018 4.662 23.766C5.226 23.502 5.868 23.37 6.588 23.37C7.332 23.37 7.992 23.52 8.568 23.82C9.144 24.12 9.588 24.558 9.9 25.134C10.26 24.582 10.758 24.15 11.394 23.838C12.042 23.526 12.768 23.37 13.572 23.37ZM24.7963 33.108C23.8483 33.108 22.9963 32.898 22.2403 32.478C21.4843 32.058 20.8903 31.482 20.4583 30.75C20.0383 30.006 19.8283 29.166 19.8283 28.23C19.8283 27.294 20.0383 26.46 20.4583 25.728C20.8903 24.984 21.4843 24.408 22.2403 24C22.9963 23.58 23.8483 23.37 24.7963 23.37C25.7443 23.37 26.5903 23.58 27.3343 24C28.0903 24.408 28.6783 24.984 29.0983 25.728C29.5303 26.46 29.7463 27.294 29.7463 28.23C29.7463 29.166 29.5303 30.006 29.0983 30.75C28.6783 31.482 28.0903 32.058 27.3343 32.478C26.5903 32.898 25.7443 33.108 24.7963 33.108ZM24.7963 31.596C25.4083 31.596 25.9543 31.458 26.4343 31.182C26.9263 30.894 27.3103 30.498 27.5863 29.994C27.8623 29.478 28.0003 28.89 28.0003 28.23C28.0003 27.57 27.8623 26.988 27.5863 26.484C27.3103 25.968 26.9263 25.572 26.4343 25.296C25.9543 25.02 25.4083 24.882 24.7963 24.882C24.1843 24.882 23.6323 25.02 23.1403 25.296C22.6603 25.572 22.2763 25.968 21.9883 26.484C21.7123 26.988 21.5743 27.57 21.5743 28.23C21.5743 28.89 21.7123 29.478 21.9883 29.994C22.2763 30.498 22.6603 30.894 23.1403 31.182C23.6323 31.458 24.1843 31.596 24.7963 31.596ZM4.374 52.108C3.594 52.108 2.844 52.006 2.124 51.802C1.404 51.586 0.84 51.316 0.432 50.992L1.152 49.624C1.572 49.924 2.082 50.164 2.682 50.344C3.282 50.524 3.888 50.614 4.5 50.614C6.012 50.614 6.768 50.182 6.768 49.318C6.768 49.03 6.666 48.802 6.462 48.634C6.258 48.466 6 48.346 5.688 48.274C5.388 48.19 4.956 48.1 4.392 48.004C3.624 47.884 2.994 47.746 2.502 47.59C2.022 47.434 1.608 47.17 1.26 46.798C0.912 46.426 0.738 45.904 0.738 45.232C0.738 44.368 1.098 43.678 1.818 43.162C2.538 42.634 3.504 42.37 4.716 42.37C5.352 42.37 5.988 42.448 6.624 42.604C7.26 42.76 7.782 42.97 8.19 43.234L7.452 44.602C6.672 44.098 5.754 43.846 4.698 43.846C3.966 43.846 3.408 43.966 3.024 44.206C2.64 44.446 2.448 44.764 2.448 45.16C2.448 45.472 2.556 45.718 2.772 45.898C2.988 46.078 3.252 46.21 3.564 46.294C3.888 46.378 4.338 46.474 4.914 46.582C5.682 46.714 6.3 46.858 6.768 47.014C7.248 47.158 7.656 47.41 7.992 47.77C8.328 48.13 8.496 48.634 8.496 49.282C8.496 50.146 8.124 50.836 7.38 51.352C6.648 51.856 5.646 52.108 4.374 52.108ZM18.9218 42.46L14.2958 52.954C13.8878 53.926 13.4078 54.61 12.8558 55.006C12.3158 55.402 11.6618 55.6 10.8938 55.6C10.4258 55.6 9.9698 55.522 9.5258 55.366C9.0938 55.222 8.7338 55.006 8.4458 54.718L9.1838 53.422C9.6758 53.89 10.2458 54.124 10.8938 54.124C11.3138 54.124 11.6618 54.01 11.9378 53.782C12.2258 53.566 12.4838 53.188 12.7118 52.648L13.0178 51.982L8.8058 42.46H10.6058L13.9358 50.092L17.2298 42.46H18.9218ZM25.6285 42.37C26.8405 42.37 27.8005 42.724 28.5085 43.432C29.2285 44.128 29.5885 45.154 29.5885 46.51V52H27.8605V46.708C27.8605 45.784 27.6385 45.088 27.1945 44.62C26.7505 44.152 26.1145 43.918 25.2865 43.918C24.3505 43.918 23.6125 44.194 23.0725 44.746C22.5325 45.286 22.2625 46.066 22.2625 47.086V52H20.5345V42.46H22.1905V43.9C22.5385 43.408 23.0065 43.03 23.5945 42.766C24.1945 42.502 24.8725 42.37 25.6285 42.37ZM41.4612 47.284C41.4612 47.416 41.4492 47.59 41.4252 47.806H33.6852C33.7932 48.646 34.1592 49.324 34.7832 49.84C35.4192 50.344 36.2052 50.596 37.1412 50.596C38.2812 50.596 39.1992 50.212 39.8952 49.444L40.8492 50.56C40.4172 51.064 39.8772 51.448 39.2292 51.712C38.5932 51.976 37.8792 52.108 37.0872 52.108C36.0792 52.108 35.1852 51.904 34.4052 51.496C33.6252 51.076 33.0192 50.494 32.5872 49.75C32.1672 49.006 31.9572 48.166 31.9572 47.23C31.9572 46.306 32.1612 45.472 32.5692 44.728C32.9892 43.984 33.5592 43.408 34.2792 43C35.0112 42.58 35.8332 42.37 36.7452 42.37C37.6572 42.37 38.4672 42.58 39.1752 43C39.8952 43.408 40.4532 43.984 40.8492 44.728C41.2572 45.472 41.4612 46.324 41.4612 47.284ZM36.7452 43.828C35.9172 43.828 35.2212 44.08 34.6572 44.584C34.1052 45.088 33.7812 45.748 33.6852 46.564H39.8052C39.7092 45.76 39.3792 45.106 38.8152 44.602C38.2632 44.086 37.5732 43.828 36.7452 43.828Z" fill="white"/>
</svg>
